# xmcd
#
# Track frame offsets: 
#        150
#        6811
#        24163
#        40205
#        60335
#        73398
#        87856
#        99156
#        113350
#        125309
#        139390
#        148964
#
# Disc length: 2060 seconds
#
# Revision: 0
# Processed by: cddbd v1.5.2PL0 Copyright (c) Steve Scherf et al.
# Submitted via: ExactAudioCopy v1.0b3
#
DISCID=9a080a0c
DTITLE=Fats Kaplin - The Fatman Cometh
DYEAR=2006
DGENRE=Americana
TTITLE0=Shakin' Down the Acorns
TTITLE1=The Ghost Waltz
TTITLE2=Dust Rag
TTITLE3=Maloney Road
TTITLE4=Waltz of the Ohio
TTITLE5=Market Day
TTITLE6=John Brown's Dream
TTITLE7=The Fatman Cometh
TTITLE8=Purgatory March
TTITLE9=Osman Pehlivan
TTITLE10=Bonaparte's Retreat
TTITLE11=Fatman Reprise
EXTD=
EXTT0=
EXTT1=
EXTT2=
EXTT3=
EXTT4=
EXTT5=
EXTT6=
EXTT7=
EXTT8=
EXTT9=
EXTT10=
EXTT11=
PLAYORDER=
